<?xml version="1.0" encoding="UTF-8"?>
<svg id="Layer_1" xmlns="http://www.w3.org/2000/svg" version="1.1" viewBox="0 0 1683.8 2383.9">
  <!-- Generator: Adobe Illustrator 30.3.0, SVG Export Plug-In . SVG Version: 2.1.3 Build 182)  -->
  <defs>
    <style>
      .st0 {
        fill: #fff;
      }
    </style>
  </defs>
  <path class="st0" d="M1357.1,723.5c-.5-.8-1-1.5-2-1.8-95.9-44.1-197.4-75.5-301.3-93.4-1-.3-2,0-2.8.3-.8.3-1.5,1-2,2-13.8,24.9-26.4,50.8-37.5,77-112.3-17.1-226.3-17.1-338.3,0-11.3-26.4-23.9-52.1-38-77-.5-.8-1.3-1.5-2-2-.8-.5-1.8-.5-2.8-.5-104,17.9-205.4,49.3-301.3,93.4-.8.3-1.5,1-2,1.8-191.8,286.5-244.4,566.1-218.8,842,0,.8.3,1.3.5,2s.8,1,1.3,1.5c111.8,82.8,236.6,146,369.5,186.8,1,.3,2,.3,2.8,0,.8-.3,1.8-1,2.3-1.8,28.4-38.8,53.9-80,75.5-122.8.3-.5.5-1.3.5-2s0-1.3-.3-2c-.3-.8-.5-1.3-1-1.5-.5-.3-1-.8-1.8-1-39.8-15.4-78.5-33.7-115.5-55.1-.8-.5-1.3-1-1.8-1.5-.5-.5-.8-1.5-.8-2.3s0-1.5.5-2.3c.5-.8.8-1.3,1.5-1.8,7.8-5.8,15.6-11.8,22.9-17.9.8-.5,1.5-1,2.3-1s1.8,0,2.5.3c242.2,110.5,504.5,110.5,743.9,0,.8-.3,1.8-.5,2.5-.5s1.8.5,2.3,1c7.3,6,15.1,12.3,22.9,18.1.5.5,1,1,1.5,1.8.5.8.5,1.5.5,2.3s-.3,1.5-.8,2.3c-.5.8-1,1.3-1.5,1.5-37,21.6-75.5,40-115.5,54.9-.5.3-1.3.5-1.8,1-.5.5-.8,1-1,1.8-.3.8-.3,1.3-.3,2s.3,1.3.5,2c22.2,42.8,47.3,83.8,75.5,122.8.5.8,1.5,1.5,2.3,1.8.8.3,2,.3,2.8,0,133.2-40.8,258.3-104,370.3-186.8.5-.5,1-1,1.3-1.5.3-.5.5-1.3.5-2,31-319.2-51.6-596.3-218.8-842l.8.3ZM596.9,1397.4c-73,0-132.9-67-132.9-149s58.9-149,132.9-149,134.2,67.5,132.9,149c0,82.3-58.9,149-132.9,149ZM1088.8,1397.4c-73,0-132.9-67-132.9-149s58.9-149,132.9-149,134.2,67.5,132.9,149c0,82.3-58.4,149-132.9,149Z"/>
</svg>