<?xml version="1.0" encoding="UTF-8"?>
<svg id="Layer_1" xmlns="http://www.w3.org/2000/svg" version="1.1" viewBox="0 0 1683.8 2383.9">
  <!-- Generator: Adobe Illustrator 30.3.0, SVG Export Plug-In . SVG Version: 2.1.3 Build 182)  -->
  <defs>
    <style>
      .st0 {
        fill: #fff;
      }
    </style>
  </defs>
  <path class="st0" d="M837.6,791.1c-201.5-.6-365.2,162.5-365.9,364-.6,201.5,162.5,365.2,364,365.9,201.5.6,365.2-162.5,365.9-364,.6-201.5-162.5-365.2-364-365.9h0ZM835.7,919.2c130.8-.6,237.1,105,237.7,235.8.6,130.8-105,237.1-235.8,237.7-130.8.6-237.1-105-237.7-235.8-.6-130.8,105-237.1,235.8-237.7h0ZM1132.2,776.1c0-46.9,38.1-85,85-85s85,38.1,85,85-38.1,85-85,85-85-38.1-85-85ZM1543.8,862.4c-5.4-114-31.5-214.9-114.9-298-83.1-83.1-184-109.1-298-114.9-117.4-6.6-469.3-6.6-586.9,0-113.5,5.4-214.6,31.5-298,114.6-83.4,83.1-109.1,184-114.9,298-6.6,117.4-6.6,469.3,0,586.9,5.4,114,31.5,214.9,114.9,298,83.4,83.1,184,109.1,298,114.9,117.4,6.6,469.3,6.6,586.9,0,114-5.4,214.9-31.5,298-114.9,83.1-83.1,109.1-184,114.9-298,6.6-117.4,6.6-469.1,0-586.4h0ZM1392.1,1574.9c-24.7,62.2-72.7,110.2-135.2,135.2-93.7,37.1-315.8,28.5-419.2,28.5s-325.9,8.2-419.2-28.5c-62.2-24.7-110.2-72.7-135.2-135.2-37.1-93.7-28.5-315.8-28.5-419.2s-8.2-325.9,28.5-419.2c24.7-62.2,72.7-110.2,135.2-135.2,93.7-37.1,315.8-28.5,419.2-28.5s325.9-8.2,419.2,28.5c62.2,24.7,110.2,72.7,135.2,135.2,37.1,93.7,28.5,315.8,28.5,419.2s8.5,325.9-28.5,419.2Z"/>
</svg>