<?xml version="1.0" encoding="UTF-8"?>
<svg id="Layer_1" xmlns="http://www.w3.org/2000/svg" version="1.1" viewBox="0 0 595.3 590.1">
  <!-- Generator: Adobe Illustrator 30.3.0, SVG Export Plug-In . SVG Version: 2.1.3 Build 182)  -->
  <defs>
    <style>
      .st0 {
        fill: #c6a6ee;
      }

      .st1 {
        fill: #daff08;
      }

      .st2 {
        fill: #ff8100;
      }

      .st3 {
        fill: #231f20;
      }

      .st4 {
        fill: #9cccce;
      }

      .st5 {
        fill: #fff;
      }

      .st6 {
        fill: #ffcd00;
      }

      .st7 {
        fill: #a4be16;
      }

      .st8 {
        fill: none;
        stroke: #231f20;
        stroke-miterlimit: 10;
        stroke-width: 17px;
      }
    </style>
  </defs>
  <g>
    <circle class="st1" cx="297.6" cy="295" r="267.3"/>
    <g>
      <path d="M244.2,230.8c1.2,0,2.5,0,3.7-.2,21.9-1.8,40.2-19.4,43.4-41.8.7-4.7-2.6-9-7.2-9.7-4.6-.7-9,2.6-9.7,7.2-2.1,14.6-13.8,26.1-27.8,27.2-15.7,1.3-30.5-11-33-27.3-.7-4.7-5.1-7.9-9.7-7.2-4.7.7-7.9,5.1-7.2,9.7,3.6,24.2,24.1,41.9,47.5,41.9v.2Z"/>
      <path d="M354.2,230.8c1.2,0,2.5,0,3.7-.2,21.9-1.8,40.2-19.4,43.4-41.8.7-4.7-2.6-9-7.2-9.7-4.6-.7-9,2.6-9.7,7.2-2.1,14.6-13.8,26.1-27.8,27.2-15.7,1.3-30.5-11-33-27.3-.7-4.7-5.1-7.9-9.7-7.2-4.7.7-7.9,5.1-7.2,9.7,3.6,24.2,24.1,41.9,47.5,41.9v.2Z"/>
      <path d="M469.1,211.3c-3.4-3.3-8.8-3.2-12.1.3-15.3,15.9-71.8,67.8-158.9,67.8h-.5c-86.8-.2-143.2-52-158.4-67.8-3.3-3.4-8.7-3.5-12.1-.3-3.4,3.3-3.5,8.7-.3,12.1,16.4,17.1,77.1,72.8,170.7,73.1h.6c93.9,0,154.8-55.9,171.3-73.1,3.3-3.4,3.2-8.8-.3-12.1h0Z"/>
    </g>
  </g>
  <g>
    <path class="st6" d="M3129.5,312.5c32-26.6,52.4-66.8,52.4-111.6,0-80.2-65-145.2-145.2-145.2s-95.9,26.3-121.8,66.1c-25.9-39.8-70.7-66.1-121.8-66.1-80.2,0-145.2,65-145.2,145.2s20.4,85,52.4,111.6c-32,26.6-52.4,66.8-52.4,111.6,0,80.2,65,145.2,145.2,145.2s95.9-26.3,121.8-66.1c25.9,39.8,70.7,66.1,121.8,66.1,80.2,0,145.2-65,145.2-145.2s-20.4-85-52.4-111.6h0Z"/>
    <g>
      <path class="st3" d="M2863.6,318.3c1.2,0,2.4,0,3.6-.1,20.8-1.7,38.1-18.4,41.2-39.7.6-4.4-2.4-8.6-6.9-9.2-4.4-.6-8.6,2.4-9.2,6.9-2,13.9-13.1,24.8-26.4,25.9-14.9,1.2-28.9-10.4-31.3-25.9-.7-4.4-4.8-7.5-9.2-6.8-4.4.7-7.5,4.8-6.8,9.2,3.5,22.9,22.9,39.8,45.1,39.8h-.1Z"/>
      <path class="st3" d="M2968.1,318.3c1.2,0,2.4,0,3.6-.1,20.8-1.7,38.1-18.4,41.2-39.7.6-4.4-2.4-8.6-6.9-9.2-4.4-.6-8.5,2.4-9.2,6.9-2,13.9-13.1,24.8-26.4,25.9-14.9,1.3-28.9-10.4-31.3-25.9-.7-4.4-4.8-7.5-9.2-6.8-4.4.7-7.5,4.8-6.8,9.2,3.5,22.9,22.9,39.8,45.1,39.8h-.1Z"/>
      <path class="st3" d="M3066.4,265.4c-4.3-1.3-8.8,1.2-10.1,5.5-18.6,62.4-76.4,105.4-141.3,104.3-62.7-.9-119-43.8-137-104.3-1.3-4.3-5.8-6.7-10.1-5.5-4.3,1.3-6.7,5.8-5.5,10.1,20,67.2,82.6,114.9,152.3,115.9h2.4c70.9,0,134.4-47.4,154.8-115.9,1.3-4.3-1.2-8.8-5.5-10.1h0Z"/>
    </g>
  </g>
  <g>
    <rect class="st2" x="3302.9" y="53.1" width="512.3" height="512.3" rx="43.9" ry="43.9"/>
    <path class="st5" d="M3623.4,180.5c-29,0-53.9,17.8-64.4,43-10.5-25.2-35.3-43-64.4-43s-69.7,31.2-69.7,69.7,31.2,69.7,69.7,69.7,53.9-17.8,64.4-43c10.5,25.2,35.3,43,64.4,43s69.7-31.2,69.7-69.7-31.2-69.7-69.7-69.7h0Z"/>
    <circle class="st3" cx="3500.3" cy="256.2" r="29.2"/>
    <circle class="st3" cx="3617" cy="256.2" r="29.2"/>
    <rect class="st2" x="3402.5" y="149.2" width="317.5" height="96.9"/>
    <line class="st8" x1="3463.7" y1="362.4" x2="3654.4" y2="362.4"/>
  </g>
  <g>
    <circle class="st4" cx="1590.9" cy="301.1" r="266.5"/>
    <path class="st5" d="M1667.1,202.5c-34.4,0-63.8,21-76.2,50.9-12.4-29.9-41.8-50.9-76.2-50.9s-82.5,36.9-82.5,82.5,36.9,82.5,82.5,82.5,63.8-21,76.2-50.9c12.4,29.9,41.8,50.9,76.2,50.9s82.5-36.9,82.5-82.5-36.9-82.5-82.5-82.5Z"/>
    <path d="M1473.2,213.7c-6.6,20.7-1.8,42.3,12.3,54.4,12.2,10.5,27.5,10.7,30.6,10.7s16.3-.6,26.8-8.2c15.1-11,21.6-32.7,16.6-54.8-6.3-4.1-22.4-13.2-44.8-13.3-20.2,0-35,7.4-41.5,11.2h0Z"/>
    <path d="M1625.3,213.7c-6.6,20.7-1.8,42.3,12.3,54.4,12.2,10.5,27.5,10.7,30.6,10.7s16.3-.6,26.8-8.2c15.1-11,21.6-32.7,16.6-54.8-6.3-4.1-22.4-13.2-44.8-13.3-20.2,0-35,7.4-41.5,11.2h0Z"/>
  </g>
  <g>
    <circle class="st7" cx="2244.3" cy="301.1" r="267.5"/>
    <g>
      <path class="st5" d="M2166.5,132.1c-16.4,30.3-12,66.3,8.5,91.6-32.3-3.3-64.9,12.6-81.3,42.9-21.8,40.2-6.8,90.5,33.4,112.2,40.2,21.8,90.5,6.8,112.2-33.4,16.4-30.3,12-66.3-8.5-91.6,32.3,3.3,64.9-12.6,81.3-42.9,21.8-40.2,6.8-90.5-33.4-112.2-40.2-21.8-90.5-6.8-112.2,33.4h0Z"/>
      <path d="M2083.7,308.5c15.1,15.8,36.5,21.8,53.9,15.2,15.1-5.7,22.6-19.2,24.1-21.9,1.9-3.6,7.3-14.6,5.6-27.6-2.4-18.6-18.5-34.7-40.4-40.8-6.6,3.6-22.4,13.4-33.1,33.2-9.6,17.8-10.2,34.4-10,42h0Z"/>
    </g>
    <path class="st7" d="M2175,223.6c8.2,1.5,20.2,4.8,33.1,12.3,10.2,5.9,17.6,12.6,22.7,17.9,10.9,3.1,24.9,5.8,41.2,6.1,32.2.6,57.5-8.6,72.2-15.3V92.2l-90.5-18.9-101.2,18.4-22.3,95.8c14.9,12,29.9,24.1,44.8,36.1Z"/>
    <rect class="st5" x="2229.9" y="272.9" width="174.3" height="85.4"/>
    <path d="M2232.6,358.3c11.5.2,23,.4,34.5.5,4.1-1.3,12.8-4.6,20.1-12.9,10.6-12.1,10.8-26.2,10.7-30.8,0-4.6-.2-16-8.3-26.9-9.4-12.8-23-16-26.6-16.8-9.5,0-18.9,0-28.4.1-.7,28.9-1.4,57.8-2.1,86.6v.2Z"/>
  </g>
  <g>
    <path class="st0" d="M983.3,83.9l233.1,413.9c1,3.3,6.6,23.6-5.4,42.5-7.2,11.2-17.2,16.5-21.8,18.5h-497.8c-4.9-1.8-17.5-7.3-26.1-20.7-14.2-22-5.4-46.2-4.4-49l241.8-405.2c1-1.8,12.6-21.8,35.9-24,17.9-1.7,35.4,7.7,44.7,24h0Z"/>
    <g>
      <rect x="897.4" y="424.8" width="78.4" height="16"/>
      <path d="M836.3,296.7c-3.3-3-8.4-2.7-11.3.6-3,3.3-2.7,8.4.6,11.3l52.3,47h-67.9c-4.4,0-8,3.6-8,8s3.6,8,8,8h109.7l-83.4-74.9h0Z"/>
      <path d="M1065.9,355.6h-67.9l52.3-47c3.3-3,3.6-8,.6-11.3s-8-3.6-11.3-.6l-83.4,74.9h109.7c4.4,0,8-3.6,8-8s-3.6-8-8-8h0Z"/>
    </g>
  </g>
</svg>